<svg data-v-423bf9ae="" xmlns="http://www.w3.org/2000/svg" viewBox="0 0 271.1776315436061 60" class="font"><!----><!----><!----><g data-v-423bf9ae="" id="b9b90e9b-28d1-49a9-8af8-e27bc57c22c7" fill="black" transform="matrix(4.224608525153769,0,0,4.224608525153769,-1.1406429695189786,-11.395881694731862)"><path d="M4.03 3.22L4.03 3.22Q3.88 3.54 3.64 3.78L3.64 3.78L3.64 3.78Q3.54 3.88 3.51 3.93L3.51 3.93L3.51 3.93Q3.47 3.99 3.47 4.09L3.47 4.09L3.47 4.09Q3.47 5.40 3.39 6.84L3.39 6.84L3.39 6.84Q3.30 8.27 3.29 8.55L3.29 8.55L3.29 8.55Q3.19 10.05 3.14 11.07L3.14 11.07L3.14 11.07Q3.09 12.08 3.09 13.13L3.09 13.13L3.09 13.13Q3.09 14.45 3.16 15.43L3.16 15.43L3.16 15.48L3.16 15.48Q3.16 15.65 3.21 15.67L3.21 15.67L3.21 15.67Q3.25 15.69 3.47 15.71L3.47 15.71L3.47 15.71Q3.67 15.72 3.79 15.71L3.79 15.71L3.79 15.71Q3.91 15.71 4.03 15.71L4.03 15.71L4.03 15.71Q4.07 15.71 4.22 15.71L4.22 15.71L4.22 15.71Q4.37 15.72 4.61 15.71L4.61 15.71L4.91 15.71L4.91 13.97L4.91 12.81L4.91 12.81Q5.04 12.68 5.19 12.68L5.19 12.68L5.19 12.68Q5.31 12.68 5.39 12.73L5.39 12.73L5.39 12.73Q5.47 12.78 5.50 12.81L5.50 12.81L5.50 12.81Q5.85 13.16 5.85 14.01L5.85 14.01L5.85 14.01Q5.85 14.38 5.81 14.76L5.81 14.76L5.81 14.76Q5.78 15.23 5.78 15.43L5.78 15.43L5.78 15.43Q5.78 15.51 5.84 15.74L5.84 15.74L5.84 15.74Q5.91 16.13 5.91 16.21L5.91 16.21L5.91 16.21Q5.91 16.46 5.78 16.59L5.78 16.59L5.78 16.59Q5.14 16.70 4.48 16.72L4.48 16.72L4.48 16.72Q4.05 16.73 3.21 16.73L3.21 16.73L3.21 16.73Q2.38 16.73 1.86 16.75L1.86 16.75L1.86 16.75Q1.34 16.77 0.85 16.87L0.85 16.87L0.85 16.87Q0.70 16.73 0.55 16.65L0.55 16.65L0.55 16.65Q0.39 16.56 0.33 16.49L0.33 16.49L0.33 16.49Q0.27 16.42 0.27 16.28L0.27 16.28L0.27 16.28Q0.27 16.10 0.41 16.05L0.41 16.05L0.41 16.05Q0.56 16.00 0.85 16.00L0.85 16.00L0.85 16.00Q1.05 15.81 1.09 15.58L1.09 15.58L1.09 15.58Q1.13 15.36 1.13 14.84L1.13 14.84L1.13 14.84Q1.33 13.89 1.38 12.69L1.38 12.69L1.38 12.69Q1.43 11.49 1.43 9.91L1.43 9.91L1.43 9.60L1.43 7.01L1.43 7.01Q1.43 6.05 1.38 5.36L1.38 5.36L1.38 5.36Q1.33 4.68 1.13 4.09L1.13 4.09L1.13 4.09Q1.13 3.96 1.08 3.91L1.08 3.91L1.08 3.91Q1.02 3.85 0.87 3.75L0.87 3.75L0.87 3.75Q0.67 3.64 0.55 3.53L0.55 3.53L0.55 2.94L0.85 2.94L0.85 2.94Q1.30 2.94 1.96 2.87L1.96 2.87L1.96 2.87Q2.11 2.86 2.51 2.83L2.51 2.83L2.51 2.83Q2.91 2.80 3.23 2.80L3.23 2.80L3.23 2.80Q3.63 2.80 3.81 2.83L3.81 2.83L3.81 2.83Q3.98 2.84 4.01 2.88L4.01 2.88L4.01 2.88Q4.05 2.93 4.04 3.04L4.04 3.04L4.04 3.04Q4.03 3.15 4.03 3.22L4.03 3.22ZM9.72 3.85L9.72 3.85Q9.59 4.19 9.59 4.66L9.59 4.66L9.59 4.66Q9.59 5.04 9.66 5.50L9.66 5.50L9.66 5.50Q9.67 5.60 9.70 5.90L9.70 5.90L9.70 5.90Q9.73 6.20 9.72 6.44L9.72 6.44L9.72 6.44Q9.69 7.29 9.60 9.17L9.60 9.17L9.60 9.17Q9.53 10.77 9.48 12.49L9.48 12.49L9.48 12.49Q9.42 14.21 9.42 15.65L9.42 15.65L9.42 15.65Q9.56 15.79 9.87 15.95L9.87 15.95L9.87 15.95Q10.15 16.09 10.28 16.21L10.28 16.21L10.28 16.21Q10.28 16.34 10.22 16.40L10.22 16.40L10.22 16.40Q10.16 16.46 10.02 16.56L10.02 16.56L10.02 16.56Q9.86 16.66 9.72 16.80L9.72 16.80L9.72 16.80Q9.56 16.73 9.18 16.67L9.18 16.67L9.18 16.67Q8.99 16.66 8.53 16.66L8.53 16.66L8.53 16.66Q8.05 16.66 7.74 16.63L7.74 16.63L7.74 16.63Q7.42 16.60 7.13 16.51L7.13 16.51L7.13 16.51Q7.10 16.49 7.05 16.41L7.05 16.41L7.05 16.41Q7.00 16.32 7.00 16.21L7.00 16.21L7.00 16.21Q7.00 16.06 7.13 15.95L7.13 15.95L7.13 15.95Q7.13 15.85 7.17 15.83L7.17 15.83L7.17 15.83Q7.21 15.81 7.31 15.81L7.31 15.81L7.31 15.81Q7.43 15.81 7.49 15.79L7.49 15.79L7.49 15.79Q7.63 15.74 7.69 15.65L7.69 15.65L7.69 15.65Q7.81 15.53 7.81 15.29L7.81 15.29L7.81 15.29Q7.81 15.18 7.78 15.03L7.78 15.03L7.78 15.03Q7.76 14.88 7.74 14.83L7.74 14.83L7.74 14.83Q7.69 14.57 7.69 14.50L7.69 14.50L7.69 14.50Q7.69 14.07 7.71 13.23L7.71 13.23L7.73 12.00L7.73 12.00Q7.71 11.93 7.70 11.74L7.70 11.74L7.70 11.74Q7.69 11.55 7.69 11.33L7.69 11.33L7.69 8.74L7.69 3.85L7.69 3.85Q7.42 3.85 7.27 3.80L7.27 3.80L7.27 3.80Q7.13 3.75 7.13 3.56L7.13 3.56L7.13 2.98L7.13 2.98Q7.13 2.86 7.22 2.86L7.22 2.86L7.22 2.86Q7.27 2.86 7.50 2.92L7.50 2.92L7.50 2.92Q7.74 2.98 7.98 2.98L7.98 2.98L7.98 2.98Q8.13 2.98 8.64 2.93L8.64 2.93L8.64 2.93Q8.75 2.91 9.04 2.88L9.04 2.88L9.04 2.88Q9.34 2.86 9.56 2.86L9.56 2.86L9.56 2.86Q10.04 2.86 10.28 2.98L10.28 2.98L10.28 2.98Q10.39 3.09 10.39 3.26L10.39 3.26L10.39 3.26Q10.39 3.49 10.20 3.67L10.20 3.67L10.20 3.67Q10.01 3.85 9.72 3.85L9.72 3.85ZM15.54 7.71L15.54 7.71Q15.54 7.85 15.62 7.92L15.62 7.92L15.62 7.92Q15.71 7.98 15.96 8.09L15.96 8.09L15.96 8.09Q16.13 8.15 16.39 8.29L16.39 8.29L16.39 8.29Q16.87 8.76 17.20 9.59L17.20 9.59L17.20 9.59Q17.53 10.42 17.53 11.42L17.53 11.42L17.53 11.42Q17.58 11.77 17.58 12.24L17.58 12.24L17.58 12.24Q17.58 13.58 17.02 14.80L17.02 14.80L17.02 14.80Q16.45 16.02 15.54 16.58L15.54 16.58L15.54 16.58Q15.15 16.77 14.73 16.81L14.73 16.81L14.73 16.81Q14.32 16.86 13.54 16.86L13.54 16.86L13.54 16.86Q13.24 16.86 12.68 16.72L12.68 16.72L12.68 16.72Q12.10 16.58 11.82 16.58L11.82 16.58L11.82 16.58Q11.47 16.58 11.30 16.55L11.30 16.55L11.30 16.55Q11.14 16.52 11.05 16.40L11.05 16.40L11.05 16.40Q10.96 16.28 10.96 16.00L10.96 16.00L10.96 15.71L11.82 15.71L11.82 15.71Q11.90 15.36 11.96 14.59L11.96 14.59L11.96 14.59Q11.97 14.20 11.97 13.38L11.97 13.38L11.97 13.38Q11.97 12.56 11.99 11.99L11.99 11.99L11.99 11.99Q12.01 11.42 12.11 10.85L12.11 10.85L12.11 10.29L12.11 8.86L12.11 5.99L12.11 3.71L12.11 3.71Q11.54 3.71 11.25 3.61L11.25 3.61L11.25 3.61Q10.96 3.51 10.96 3.14L10.96 3.14L10.96 3.14Q11.14 2.95 11.48 2.91L11.48 2.91L11.48 2.91Q11.82 2.86 12.39 2.86L12.39 2.86L12.39 2.86Q13.82 2.86 14.63 2.95L14.63 2.95L14.63 2.95Q15.44 3.05 15.82 3.43L15.82 3.43L15.82 3.43Q15.88 3.54 15.93 3.63L15.93 3.63L15.93 3.63Q15.97 3.71 16.00 3.78L16.00 3.78L16.00 3.78Q16.21 4.14 16.30 4.42L16.30 4.42L16.30 4.42Q16.39 4.70 16.39 5.14L16.39 5.14L16.39 5.14Q16.46 5.33 16.46 5.63L16.46 5.63L16.46 5.63Q16.46 6.16 16.19 6.74L16.19 6.74L16.19 6.74Q15.92 7.32 15.54 7.71L15.54 7.71ZM13.82 3.71L13.82 3.71Q13.62 3.91 13.58 4.13L13.58 4.13L13.58 4.13Q13.54 4.35 13.54 4.86L13.54 4.86L13.54 4.86Q13.54 5.64 13.58 6.06L13.58 6.06L13.58 6.06Q13.62 6.47 13.82 6.86L13.82 6.86L13.82 6.86Q13.89 6.93 13.97 6.93L13.97 6.93L13.97 6.93Q14.08 6.93 14.20 6.83L14.20 6.83L14.20 6.83Q14.31 6.72 14.46 6.52L14.46 6.52L14.67 6.29L14.67 6.29Q14.87 5.73 14.97 5.31L14.97 5.31L14.97 5.31Q15.08 4.90 15.08 4.56L15.08 4.56L15.08 4.56Q15.08 4.23 14.97 4.00L14.97 4.00L14.97 4.00Q14.77 3.81 14.47 3.76L14.47 3.76L14.47 3.76Q14.17 3.71 13.82 3.71L13.82 3.71ZM14.97 15.43L15.54 14.85L15.54 14.85Q15.72 14.67 15.77 14.37L15.77 14.37L15.77 14.37Q15.82 14.07 15.82 13.72L15.82 13.72L15.82 13.72Q16.03 13.50 16.07 13.43L16.07 13.43L16.07 13.43Q16.10 13.36 16.10 13.15L16.10 13.15L16.10 13.15Q16.23 12.89 16.23 12.42L16.23 12.42L16.23 12.42Q16.23 12.22 16.16 11.49L16.16 11.49L16.16 11.49Q16.10 10.99 16.10 10.85L16.10 10.85L16.11 10.37L16.11 10.37Q16.11 10.21 16.07 10.05L16.07 10.05L16.07 10.05Q16.03 9.90 15.90 9.65L15.90 9.65L15.90 9.65Q15.90 9.65 15.91 9.63L15.91 9.63L15.91 9.63Q15.92 9.60 15.92 9.58L15.92 9.58L15.89 9.37L15.89 9.37Q15.88 9.32 15.81 9.18L15.81 9.18L15.81 9.18Q15.75 9.04 15.67 8.85L15.67 8.85L15.67 8.85Q15.25 8.43 14.76 8.21L14.76 8.21L14.76 8.21Q14.27 7.99 13.82 7.99L13.82 7.99L13.82 7.99Q13.64 8.19 13.59 8.49L13.59 8.49L13.59 8.49Q13.54 8.79 13.54 9.14L13.54 9.14L13.54 13.72L13.54 15.71L13.54 15.71Q14.10 15.71 14.43 15.66L14.43 15.66L14.43 15.66Q14.77 15.61 14.97 15.43L14.97 15.43ZM24.26 9.02L24.26 9.02Q24.65 9.52 24.86 10.26L24.86 10.26L24.86 10.26Q25.07 11.00 25.16 11.78L25.16 11.78L25.16 11.78Q25.26 12.56 25.33 13.78L25.33 13.78L25.33 13.78Q25.41 15.19 25.49 15.82L25.49 15.82L25.49 15.82Q25.80 15.82 25.94 15.87L25.94 15.87L25.94 15.87Q26.08 15.92 26.08 16.11L26.08 16.11L26.08 16.11Q26.08 16.80 25.07 16.80L25.07 16.80L25.07 16.80Q24.78 16.80 24.00 16.70L24.00 16.70L24.00 16.70Q23.81 16.52 23.77 16.30L23.77 16.30L23.77 16.21L23.77 16.21Q23.77 16.11 23.86 15.72L23.86 15.72L23.86 15.72Q23.90 15.51 23.95 15.23L23.95 15.23L23.95 15.23Q24.00 14.94 24.00 14.63L24.00 14.63L24.00 14.63Q24.00 14.20 23.93 13.83L23.93 13.83L23.93 13.83Q23.86 13.38 23.86 12.70L23.86 12.70L23.86 12.70Q23.83 11.87 23.74 11.36L23.74 11.36L23.74 11.36Q23.66 10.85 23.34 10.40L23.34 10.40L23.17 10.15L23.17 10.15Q22.97 9.83 22.75 9.60L22.75 9.60L22.75 9.60Q22.75 9.48 22.69 9.41L22.69 9.41L22.69 9.41Q22.62 9.34 22.47 9.24L22.47 9.24L22.47 9.24Q22.27 9.13 22.15 9.02L22.15 9.02L22.15 9.02Q21.85 9.02 21.71 9.07L21.71 9.07L21.71 9.07Q21.56 9.11 21.56 9.30L21.56 9.30L21.56 9.30Q21.42 10.01 21.42 10.88L21.42 10.88L21.42 10.88Q21.42 11.48 21.50 12.54L21.50 12.54L21.50 12.54Q21.56 13.47 21.56 13.80L21.56 13.80L21.56 13.80Q21.56 14.42 21.61 14.82L21.61 14.82L21.61 14.82Q21.66 15.22 21.84 15.62L21.84 15.62L21.84 15.62Q21.84 15.72 21.92 15.79L21.92 15.79L21.92 15.79Q21.99 15.85 22.15 15.92L22.15 15.92L22.15 15.92Q22.29 15.99 22.37 16.04L22.37 16.04L22.37 16.04Q22.44 16.10 22.44 16.20L22.44 16.20L22.44 16.20Q22.44 16.25 22.44 16.42L22.44 16.42L22.44 16.42Q22.44 16.59 22.39 16.66L22.39 16.66L22.39 16.66Q22.33 16.73 22.19 16.73L22.19 16.73L22.19 16.73Q21.94 16.73 21.60 16.69L21.60 16.69L21.60 16.69Q21.48 16.69 21.20 16.67L21.20 16.67L21.20 16.67Q20.92 16.65 20.71 16.65L20.71 16.65L20.71 16.65Q20.08 16.65 19.75 16.81L19.75 16.81L19.75 16.81Q19.38 16.81 19.19 16.79L19.19 16.79L19.19 16.79Q19.01 16.76 18.86 16.63L18.86 16.63L18.86 16.63Q18.70 16.49 18.55 16.20L18.55 16.20L18.55 16.20Q18.76 16.02 18.96 15.97L18.96 15.97L18.96 15.97Q19.15 15.92 19.45 15.92L19.45 15.92L19.45 10.81L19.45 10.81Q19.45 10.67 19.47 10.48L19.47 10.48L19.47 10.48Q19.50 10.29 19.52 10.21L19.52 10.21L19.52 10.21Q19.59 9.88 19.59 9.62L19.59 9.62L19.59 9.62Q19.59 9.30 19.45 9.02L19.45 9.02L19.45 9.02Q19.45 8.82 19.49 8.65L19.49 8.65L19.49 8.65Q19.54 8.29 19.54 8.23L19.54 8.23L19.54 8.23Q19.57 7.76 19.57 7.55L19.57 7.55L19.57 7.55Q19.57 7.11 19.52 6.22L19.52 6.22L19.52 6.22Q19.50 6.05 19.47 5.54L19.47 5.54L19.47 5.54Q19.45 5.03 19.45 4.51L19.45 4.51L19.45 4.51Q18.97 4.51 18.66 4.40L18.66 4.40L18.66 4.40Q18.35 4.30 18.35 4.07L18.35 4.07L18.35 4.07Q18.35 3.64 18.49 3.45L18.49 3.45L18.49 3.45Q18.62 3.26 18.87 3.22L18.87 3.22L18.87 3.22Q19.11 3.18 19.66 3.18L19.66 3.18L19.66 3.18Q19.81 3.18 20.01 3.09L20.01 3.09L20.01 3.09Q20.17 3.01 20.33 3.01L20.33 3.01L20.33 3.01Q21.17 2.87 21.95 2.87L21.95 2.87L21.95 2.87Q23.18 2.87 24.06 3.25L24.06 3.25L24.06 3.25Q24.93 3.63 25.14 4.51L25.14 4.51L25.14 4.51Q25.33 5.24 25.33 5.85L25.33 5.85L25.33 5.85Q25.33 6.47 25.14 6.90L25.14 6.90L25.14 6.90Q25.03 7.18 24.77 7.52L24.77 7.52L24.77 7.52Q24.51 7.85 24.26 8.11L24.26 8.11L23.95 8.41L23.95 8.41Q23.95 8.58 24.11 8.71L24.11 8.71L24.11 8.71Q24.26 8.86 24.26 9.02L24.26 9.02ZM21.28 3.93L21.28 3.93Q21.28 5.31 21.39 7.63L21.39 7.63L21.39 7.63Q21.39 7.78 21.63 7.78L21.63 7.78L21.63 7.78Q21.92 7.78 22.40 7.59L22.40 7.59L22.40 7.59Q22.88 7.39 23.06 7.21L23.06 7.21L23.06 7.21Q23.06 7.04 23.20 6.57L23.20 6.57L23.20 6.57Q23.31 6.22 23.34 6.02L23.34 6.02L23.34 6.02Q23.39 5.73 23.39 5.54L23.39 5.54L23.39 5.54Q23.39 5.40 23.37 5.22L23.37 5.22L23.37 5.22Q23.34 5.04 23.34 4.82L23.34 4.82L23.34 4.82Q23.34 4.56 23.23 4.40L23.23 4.40L23.23 4.40Q23.11 4.24 22.96 4.10L22.96 4.10L22.96 4.10Q22.81 3.96 22.75 3.91L22.75 3.91L21.28 3.93ZM32.10 15.65L32.10 15.65Q32.10 13.79 32.05 12.54L32.05 12.54L32.05 12.54Q32.00 11.30 31.79 10.32L31.79 10.32L31.79 10.32Q31.51 10.32 30.88 10.19L30.88 10.19L30.88 10.19Q29.99 10.02 29.47 10.02L29.47 10.02L29.47 10.02Q29.26 10.22 29.21 10.57L29.21 10.57L29.21 10.57Q29.16 10.92 29.16 11.54L29.16 11.54L29.16 11.54Q28.95 12.32 28.90 13.24L28.90 13.24L28.90 13.24Q28.84 14.17 28.84 15.67L28.84 15.67L28.84 15.67Q28.97 15.76 29.08 15.79L29.08 15.79L29.08 15.79Q29.16 15.81 29.32 15.81L29.32 15.81L29.32 15.81Q29.46 15.81 29.55 15.83L29.55 15.83L29.55 15.83Q29.65 15.85 29.74 15.93L29.74 15.93L29.74 15.93Q29.74 16.16 29.72 16.32L29.72 16.32L29.72 16.32Q29.71 16.48 29.69 16.52L29.69 16.52L29.69 16.52Q29.33 16.77 28.95 16.79L28.95 16.79L28.95 16.79Q28.88 16.80 28.73 16.80L28.73 16.80L28.73 16.80Q28.46 16.80 28.21 16.76L28.21 16.76L28.21 16.76Q27.87 16.73 27.71 16.73L27.71 16.73L27.71 16.73Q27.38 16.73 27.10 16.83L27.10 16.83L26.49 16.24L26.49 16.24Q27.01 15.67 27.37 15.67L27.37 15.67L27.37 15.67Q27.58 15.67 27.63 15.52L27.63 15.52L27.63 15.52Q27.68 15.37 27.68 15.06L27.68 15.06L27.68 15.06Q27.85 13.96 28.17 11.42L28.17 11.42L28.17 11.42Q28.43 9.30 28.55 8.55L28.55 8.55L28.55 8.55Q28.55 7.94 28.72 7.32L28.72 7.32L28.72 7.32Q28.90 6.71 29.16 6.20L29.16 6.20L29.16 6.20Q29.37 5.39 29.72 4.72L29.72 4.72L29.72 4.72Q30.07 4.05 30.62 3.25L30.62 3.25L30.62 3.25Q30.65 3.22 30.77 3.12L30.77 3.12L30.77 3.12Q30.88 3.02 31.07 2.93L31.07 2.93L31.07 2.93Q31.25 2.84 31.44 2.84L31.44 2.84L31.44 2.84Q31.64 2.84 31.79 2.94L31.79 2.94L31.79 2.94Q32.09 3.08 32.38 3.46L32.38 3.46L32.38 3.46Q32.66 3.84 32.84 4.27L32.84 4.27L32.84 4.27Q33.03 4.70 33.03 5.01L33.03 5.01L33.03 5.01Q33.36 5.70 33.47 6.59L33.47 6.59L33.47 6.59Q33.59 7.57 33.87 10.78L33.87 10.78L33.87 10.78Q34.01 12.56 34.16 14.17L34.16 14.17L34.16 15.96L34.16 15.96Q34.16 16.03 34.22 16.12L34.22 16.12L34.22 16.12Q34.27 16.21 34.29 16.24L34.29 16.24L34.29 16.24Q34.44 16.42 34.44 16.55L34.44 16.55L34.44 16.55Q34.44 16.72 34.16 16.84L34.16 16.84L33.80 16.76L33.80 16.76Q33.38 16.76 32.96 16.80L32.96 16.80L32.96 16.80Q32.82 16.81 32.56 16.83L32.56 16.83L32.56 16.83Q32.31 16.84 32.10 16.84L32.10 16.84L32.10 16.84Q32.02 16.86 31.85 16.88L31.85 16.88L31.85 16.88Q31.68 16.90 31.58 16.90L31.58 16.90L31.58 16.90Q31.32 16.90 31.32 16.73L31.32 16.73L31.32 16.73Q31.32 16.58 31.45 16.32L31.45 16.32L31.45 16.32Q31.58 16.06 31.77 15.86L31.77 15.86L31.77 15.86Q31.96 15.65 32.10 15.65L32.10 15.65ZM30.62 4.70L30.62 4.70Q30.39 5.36 30.16 6.13L30.16 6.13L30.16 6.13Q29.93 6.90 29.74 7.67L29.74 7.67L29.74 7.67Q29.74 7.84 29.61 8.34L29.61 8.34L29.61 8.34Q29.47 8.96 29.47 9.17L29.47 9.17L29.47 9.17Q30.04 9.34 30.60 9.39L30.60 9.39L30.60 9.39Q31.15 9.44 31.79 9.44L31.79 9.44L31.79 7.67L31.79 7.67Q31.79 7.04 31.63 6.21L31.63 6.21L31.63 6.21Q31.47 5.38 31.23 4.70L31.23 4.70L31.23 4.70Q31.23 4.63 31.18 4.52L31.18 4.52L31.18 4.52Q31.12 4.41 30.93 4.41L30.93 4.41L30.62 4.70ZM40.91 9.02L40.91 9.02Q41.30 9.52 41.51 10.26L41.51 10.26L41.51 10.26Q41.72 11.00 41.81 11.78L41.81 11.78L41.81 11.78Q41.90 12.56 41.97 13.78L41.97 13.78L41.97 13.78Q42.06 15.19 42.14 15.82L42.14 15.82L42.14 15.82Q42.45 15.82 42.59 15.87L42.59 15.87L42.59 15.87Q42.73 15.92 42.73 16.11L42.73 16.11L42.73 16.11Q42.73 16.80 41.72 16.80L41.72 16.80L41.72 16.80Q41.43 16.80 40.64 16.70L40.64 16.70L40.64 16.70Q40.46 16.52 40.42 16.30L40.42 16.30L40.42 16.21L40.42 16.21Q40.42 16.11 40.50 15.72L40.50 15.72L40.50 15.72Q40.54 15.51 40.59 15.23L40.59 15.23L40.59 15.23Q40.64 14.94 40.64 14.63L40.64 14.63L40.64 14.63Q40.64 14.20 40.57 13.83L40.57 13.83L40.57 13.83Q40.50 13.38 40.50 12.70L40.50 12.70L40.50 12.70Q40.47 11.87 40.39 11.36L40.39 11.36L40.39 11.36Q40.31 10.85 39.98 10.40L39.98 10.40L39.82 10.15L39.82 10.15Q39.62 9.83 39.40 9.60L39.40 9.60L39.40 9.60Q39.40 9.48 39.33 9.41L39.33 9.41L39.33 9.41Q39.27 9.34 39.12 9.24L39.12 9.24L39.12 9.24Q38.92 9.13 38.79 9.02L38.79 9.02L38.79 9.02Q38.50 9.02 38.35 9.07L38.35 9.07L38.35 9.07Q38.21 9.11 38.21 9.30L38.21 9.30L38.21 9.30Q38.07 10.01 38.07 10.88L38.07 10.88L38.07 10.88Q38.07 11.48 38.15 12.54L38.15 12.54L38.15 12.54Q38.21 13.47 38.21 13.80L38.21 13.80L38.21 13.80Q38.21 14.42 38.26 14.82L38.26 14.82L38.26 14.82Q38.30 15.22 38.49 15.62L38.49 15.62L38.49 15.62Q38.49 15.72 38.56 15.79L38.56 15.79L38.56 15.79Q38.64 15.85 38.79 15.92L38.79 15.92L38.79 15.92Q38.93 15.99 39.01 16.04L39.01 16.04L39.01 16.04Q39.09 16.10 39.09 16.20L39.09 16.20L39.09 16.20Q39.09 16.25 39.09 16.42L39.09 16.42L39.09 16.42Q39.09 16.59 39.03 16.66L39.03 16.66L39.03 16.66Q38.98 16.73 38.84 16.73L38.84 16.73L38.84 16.73Q38.58 16.73 38.25 16.69L38.25 16.69L38.25 16.69Q38.12 16.69 37.84 16.67L37.84 16.67L37.84 16.67Q37.56 16.65 37.35 16.65L37.35 16.65L37.35 16.65Q36.72 16.65 36.40 16.81L36.40 16.81L36.40 16.81Q36.02 16.81 35.84 16.79L35.84 16.79L35.84 16.79Q35.66 16.76 35.50 16.63L35.50 16.63L35.50 16.63Q35.35 16.49 35.20 16.20L35.20 16.20L35.20 16.20Q35.41 16.02 35.60 15.97L35.60 15.97L35.60 15.97Q35.80 15.92 36.09 15.92L36.09 15.92L36.09 10.81L36.09 10.81Q36.09 10.67 36.12 10.48L36.12 10.48L36.12 10.48Q36.15 10.29 36.16 10.21L36.16 10.21L36.16 10.21Q36.23 9.88 36.23 9.62L36.23 9.62L36.23 9.62Q36.23 9.30 36.09 9.02L36.09 9.02L36.09 9.02Q36.09 8.82 36.13 8.65L36.13 8.65L36.13 8.65Q36.19 8.29 36.19 8.23L36.19 8.23L36.19 8.23Q36.22 7.76 36.22 7.55L36.22 7.55L36.22 7.55Q36.22 7.11 36.16 6.22L36.16 6.22L36.16 6.22Q36.15 6.05 36.12 5.54L36.12 5.54L36.12 5.54Q36.09 5.03 36.09 4.51L36.09 4.51L36.09 4.51Q35.62 4.51 35.31 4.40L35.31 4.40L35.31 4.40Q35 4.30 35 4.07L35 4.07L35 4.07Q35 3.64 35.13 3.45L35.13 3.45L35.13 3.45Q35.27 3.26 35.51 3.22L35.51 3.22L35.51 3.22Q35.76 3.18 36.30 3.18L36.30 3.18L36.30 3.18Q36.46 3.18 36.65 3.09L36.65 3.09L36.65 3.09Q36.82 3.01 36.97 3.01L36.97 3.01L36.97 3.01Q37.81 2.87 38.60 2.87L38.60 2.87L38.60 2.87Q39.83 2.87 40.70 3.25L40.70 3.25L40.70 3.25Q41.58 3.63 41.79 4.51L41.79 4.51L41.79 4.51Q41.97 5.24 41.97 5.85L41.97 5.85L41.97 5.85Q41.97 6.47 41.79 6.90L41.79 6.90L41.79 6.90Q41.68 7.18 41.42 7.52L41.42 7.52L41.42 7.52Q41.16 7.85 40.91 8.11L40.91 8.11L40.60 8.41L40.60 8.41Q40.60 8.58 40.75 8.71L40.75 8.71L40.75 8.71Q40.91 8.86 40.91 9.02L40.91 9.02ZM37.93 3.93L37.93 3.93Q37.93 5.31 38.04 7.63L38.04 7.63L38.04 7.63Q38.04 7.78 38.28 7.78L38.28 7.78L38.28 7.78Q38.57 7.78 39.05 7.59L39.05 7.59L39.05 7.59Q39.52 7.39 39.70 7.21L39.70 7.21L39.70 7.21Q39.70 7.04 39.84 6.57L39.84 6.57L39.84 6.57Q39.96 6.22 39.98 6.02L39.98 6.02L39.98 6.02Q40.04 5.73 40.04 5.54L40.04 5.54L40.04 5.54Q40.04 5.40 40.01 5.22L40.01 5.22L40.01 5.22Q39.98 5.04 39.98 4.82L39.98 4.82L39.98 4.82Q39.98 4.56 39.87 4.40L39.87 4.40L39.87 4.40Q39.76 4.24 39.61 4.10L39.61 4.10L39.61 4.10Q39.45 3.96 39.40 3.91L39.40 3.91L37.93 3.93ZM46.42 3.85L46.42 3.85Q46.30 4.19 46.30 4.66L46.30 4.66L46.30 4.66Q46.30 5.04 46.37 5.50L46.37 5.50L46.37 5.50Q46.38 5.60 46.41 5.90L46.41 5.90L46.41 5.90Q46.44 6.20 46.42 6.44L46.42 6.44L46.42 6.44Q46.40 7.29 46.31 9.17L46.31 9.17L46.31 9.17Q46.24 10.77 46.19 12.49L46.19 12.49L46.19 12.49Q46.13 14.21 46.13 15.65L46.13 15.65L46.13 15.65Q46.27 15.79 46.58 15.95L46.58 15.95L46.58 15.95Q46.86 16.09 46.98 16.21L46.98 16.21L46.98 16.21Q46.98 16.34 46.93 16.40L46.93 16.40L46.93 16.40Q46.87 16.46 46.73 16.56L46.73 16.56L46.73 16.56Q46.56 16.66 46.42 16.80L46.42 16.80L46.42 16.80Q46.27 16.73 45.89 16.67L45.89 16.67L45.89 16.67Q45.70 16.66 45.23 16.66L45.23 16.66L45.23 16.66Q44.76 16.66 44.44 16.63L44.44 16.63L44.44 16.63Q44.13 16.60 43.83 16.51L43.83 16.51L43.83 16.51Q43.81 16.49 43.76 16.41L43.76 16.41L43.76 16.41Q43.71 16.32 43.71 16.21L43.71 16.21L43.71 16.21Q43.71 16.06 43.83 15.95L43.83 15.95L43.83 15.95Q43.83 15.85 43.88 15.83L43.88 15.83L43.88 15.83Q43.92 15.81 44.02 15.81L44.02 15.81L44.02 15.81Q44.14 15.81 44.20 15.79L44.20 15.79L44.20 15.79Q44.34 15.74 44.39 15.65L44.39 15.65L44.39 15.65Q44.52 15.53 44.52 15.29L44.52 15.29L44.52 15.29Q44.52 15.18 44.49 15.03L44.49 15.03L44.49 15.03Q44.46 14.88 44.45 14.83L44.45 14.83L44.45 14.83Q44.39 14.57 44.39 14.50L44.39 14.50L44.39 14.50Q44.39 14.07 44.42 13.23L44.42 13.23L44.44 12.00L44.44 12.00Q44.42 11.93 44.41 11.74L44.41 11.74L44.41 11.74Q44.39 11.55 44.39 11.33L44.39 11.33L44.39 8.74L44.39 3.85L44.39 3.85Q44.13 3.85 43.98 3.80L43.98 3.80L43.98 3.80Q43.83 3.75 43.83 3.56L43.83 3.56L43.83 2.98L43.83 2.98Q43.83 2.86 43.93 2.86L43.93 2.86L43.93 2.86Q43.97 2.86 44.21 2.92L44.21 2.92L44.21 2.92Q44.45 2.98 44.69 2.98L44.69 2.98L44.69 2.98Q44.84 2.98 45.35 2.93L45.35 2.93L45.35 2.93Q45.46 2.91 45.75 2.88L45.75 2.88L45.75 2.88Q46.05 2.86 46.27 2.86L46.27 2.86L46.27 2.86Q46.75 2.86 46.98 2.98L46.98 2.98L46.98 2.98Q47.10 3.09 47.10 3.26L47.10 3.26L47.10 3.26Q47.10 3.49 46.91 3.67L46.91 3.67L46.91 3.67Q46.72 3.85 46.42 3.85L46.42 3.85ZM53.09 15.65L53.09 15.65Q53.09 13.79 53.04 12.54L53.04 12.54L53.04 12.54Q52.99 11.30 52.78 10.32L52.78 10.32L52.78 10.32Q52.50 10.32 51.87 10.19L51.87 10.19L51.87 10.19Q50.97 10.02 50.46 10.02L50.46 10.02L50.46 10.02Q50.25 10.22 50.20 10.57L50.20 10.57L50.20 10.57Q50.15 10.92 50.15 11.54L50.15 11.54L50.15 11.54Q49.94 12.32 49.88 13.24L49.88 13.24L49.88 13.24Q49.83 14.17 49.83 15.67L49.83 15.67L49.83 15.67Q49.95 15.76 50.06 15.79L50.06 15.79L50.06 15.79Q50.15 15.81 50.30 15.81L50.30 15.81L50.30 15.81Q50.44 15.81 50.54 15.83L50.54 15.83L50.54 15.83Q50.64 15.85 50.72 15.93L50.72 15.93L50.72 15.93Q50.72 16.16 50.71 16.32L50.71 16.32L50.71 16.32Q50.69 16.48 50.68 16.52L50.68 16.52L50.68 16.52Q50.32 16.77 49.94 16.79L49.94 16.79L49.94 16.79Q49.87 16.80 49.71 16.80L49.71 16.80L49.71 16.80Q49.45 16.80 49.20 16.76L49.20 16.76L49.20 16.76Q48.86 16.73 48.69 16.73L48.69 16.73L48.69 16.73Q48.37 16.73 48.09 16.83L48.09 16.83L47.47 16.24L47.47 16.24Q47.99 15.67 48.36 15.67L48.36 15.67L48.36 15.67Q48.57 15.67 48.62 15.52L48.62 15.52L48.62 15.52Q48.66 15.37 48.66 15.06L48.66 15.06L48.66 15.06Q48.83 13.96 49.15 11.42L49.15 11.42L49.15 11.42Q49.42 9.30 49.53 8.55L49.53 8.55L49.53 8.55Q49.53 7.94 49.71 7.32L49.71 7.32L49.71 7.32Q49.88 6.71 50.15 6.20L50.15 6.20L50.15 6.20Q50.36 5.39 50.71 4.72L50.71 4.72L50.71 4.72Q51.06 4.05 51.60 3.25L51.60 3.25L51.60 3.25Q51.63 3.22 51.75 3.12L51.75 3.12L51.75 3.12Q51.87 3.02 52.05 2.93L52.05 2.93L52.05 2.93Q52.23 2.84 52.43 2.84L52.43 2.84L52.43 2.84Q52.63 2.84 52.78 2.94L52.78 2.94L52.78 2.94Q53.07 3.08 53.36 3.46L53.36 3.46L53.36 3.46Q53.65 3.84 53.83 4.27L53.83 4.27L53.83 4.27Q54.01 4.70 54.01 5.01L54.01 5.01L54.01 5.01Q54.35 5.70 54.46 6.59L54.46 6.59L54.46 6.59Q54.57 7.57 54.85 10.78L54.85 10.78L54.85 10.78Q54.99 12.56 55.15 14.17L55.15 14.17L55.15 15.96L55.15 15.96Q55.15 16.03 55.20 16.12L55.20 16.12L55.20 16.12Q55.26 16.21 55.27 16.24L55.27 16.24L55.27 16.24Q55.43 16.42 55.43 16.55L55.43 16.55L55.43 16.55Q55.43 16.72 55.15 16.84L55.15 16.84L54.78 16.76L54.78 16.76Q54.36 16.76 53.94 16.80L53.94 16.80L53.94 16.80Q53.80 16.81 53.55 16.83L53.55 16.83L53.55 16.83Q53.30 16.84 53.09 16.84L53.09 16.84L53.09 16.84Q53.00 16.86 52.84 16.88L52.84 16.88L52.84 16.88Q52.67 16.90 52.57 16.90L52.57 16.90L52.57 16.90Q52.30 16.90 52.30 16.73L52.30 16.73L52.30 16.73Q52.30 16.58 52.44 16.32L52.44 16.32L52.44 16.32Q52.57 16.06 52.76 15.86L52.76 15.86L52.76 15.86Q52.95 15.65 53.09 15.65L53.09 15.65ZM51.60 4.70L51.60 4.70Q51.38 5.36 51.15 6.13L51.15 6.13L51.15 6.13Q50.92 6.90 50.72 7.67L50.72 7.67L50.72 7.67Q50.72 7.84 50.60 8.34L50.60 8.34L50.60 8.34Q50.46 8.96 50.46 9.17L50.46 9.17L50.46 9.17Q51.03 9.34 51.58 9.39L51.58 9.39L51.58 9.39Q52.14 9.44 52.78 9.44L52.78 9.44L52.78 7.67L52.78 7.67Q52.78 7.04 52.62 6.21L52.62 6.21L52.62 6.21Q52.46 5.38 52.22 4.70L52.22 4.70L52.22 4.70Q52.22 4.63 52.16 4.52L52.16 4.52L52.16 4.52Q52.11 4.41 51.91 4.41L51.91 4.41L51.60 4.70ZM64.46 3.00L64.46 3.00Q64.46 3.12 64.39 3.25L64.39 3.25L64.39 3.25Q64.33 3.37 64.27 3.45L64.27 3.45L64.27 3.45Q64.20 3.53 64.18 3.56L64.18 3.56L63.60 3.56L63.60 3.56Q63.48 3.68 63.48 3.85L63.48 3.85L63.48 3.85Q63.48 3.92 63.53 4.14L63.53 4.14L63.53 4.14Q63.60 4.52 63.60 4.69L63.60 4.69L63.60 7.87L63.60 7.87Q63.60 12.96 63.83 16.17L63.83 16.17L63.83 16.17Q63.84 16.51 63.66 16.66L63.66 16.66L63.66 16.66Q63.48 16.81 63.21 16.81L63.21 16.81L63.21 16.81Q63.01 16.81 62.83 16.74L62.83 16.74L62.83 16.74Q62.64 16.67 62.54 16.58L62.54 16.58L62.54 16.58Q62.43 16.24 62.28 15.80L62.28 15.80L62.28 15.80Q62.13 15.36 61.95 14.80L61.95 14.80L61.95 14.80Q60.93 11.80 60.51 10.32L60.51 10.32L60.51 10.32Q60.38 9.84 60.13 9.28L60.13 9.28L60.13 9.28Q59.88 8.71 59.85 8.65L59.85 8.65L59.85 8.65Q59.77 8.47 59.72 8.35L59.72 8.35L59.72 8.35Q59.68 8.23 59.67 8.20L59.67 8.20L59.67 8.20Q59.56 7.95 59.50 7.56L59.50 7.56L59.50 7.56Q59.43 7.20 59.35 7.01L59.35 7.01L59.35 7.01Q59.26 6.82 59.02 6.69L59.02 6.69L59.02 8.65L59.02 10.89L59.02 13.15L59.02 13.99L59.02 15.39L59.02 15.39Q59.21 15.57 59.40 15.62L59.40 15.62L59.40 15.62Q59.58 15.67 59.85 15.67L59.85 15.67L59.85 15.67Q59.85 15.81 59.88 16.09L59.88 16.09L59.88 16.09Q59.91 16.31 59.91 16.39L59.91 16.39L59.91 16.39Q59.91 16.59 59.83 16.69L59.83 16.69L59.83 16.69Q59.75 16.79 59.54 16.79L59.54 16.79L58.91 16.80L57.04 16.84L57.04 16.84Q56.92 16.84 56.89 16.75L56.89 16.75L56.89 16.75Q56.85 16.66 56.85 16.48L56.85 16.48L56.85 16.48Q56.85 16.28 56.87 16.17L56.87 16.17L56.88 15.75L56.88 15.75Q56.91 15.76 57.00 15.79L57.00 15.79L57.00 15.79Q57.09 15.82 57.18 15.82L57.18 15.82L57.18 15.82Q57.34 15.82 57.34 15.67L57.34 15.67L57.34 15.67Q57.50 15.34 57.50 14.81L57.50 14.81L57.50 14.81Q57.50 14.59 57.47 14.20L57.47 14.20L57.47 14.20Q57.44 13.83 57.44 13.71L57.44 13.71L57.44 13.71Q57.44 13.22 57.39 12.21L57.39 12.21L57.39 12.21Q57.34 11.59 57.34 11.19L57.34 11.19L57.33 9.21L57.33 9.21Q57.33 8.89 57.27 8.36L57.27 8.36L57.27 8.36Q57.22 7.83 57.22 7.56L57.22 7.56L57.22 7.56Q57.22 7.48 57.15 7.13L57.15 7.13L57.15 7.13Q57.06 6.82 57.06 6.69L57.06 6.69L57.06 6.41L57.06 5.56L57.06 5.56Q57.06 5.35 57.05 5.26L57.05 5.26L57.04 4.84L57.04 4.84Q57.04 4.62 56.90 4.28L56.90 4.28L56.90 4.28Q56.78 4.00 56.78 3.88L56.78 3.88L56.78 3.88Q56.38 3.88 56.15 3.71L56.15 3.71L56.15 3.71Q55.93 3.54 55.93 3.32L55.93 3.32L55.93 3.32Q55.93 3.11 56.07 2.95L56.07 2.95L56.07 2.95Q56.21 2.80 56.42 2.80L56.42 2.80L56.42 2.80Q56.53 2.80 56.60 2.79L56.60 2.79L56.60 2.79Q56.66 2.79 56.71 2.79L56.71 2.79L56.71 2.79Q56.84 2.76 57.06 2.74L57.06 2.74L57.06 2.74Q57.16 2.73 57.29 2.75L57.29 2.75L57.29 2.75Q57.41 2.77 57.48 2.77L57.48 2.77L57.48 2.77Q57.76 2.80 57.97 2.80L57.97 2.80L57.97 2.80Q58.14 2.80 58.25 2.91L58.25 2.91L58.25 2.91Q58.37 3.02 58.42 3.15L58.42 3.15L58.42 3.15Q58.46 3.28 58.46 3.32L58.46 3.32L58.46 3.32Q59.01 4.12 59.40 5.01L59.40 5.01L59.40 5.01Q59.79 5.89 60.33 7.28L60.33 7.28L60.33 7.28Q60.79 8.50 60.98 8.93L60.98 8.93L60.98 8.93Q61.17 9.51 61.36 9.93L61.36 9.93L61.36 9.93Q61.56 10.36 61.84 10.89L61.84 10.89L61.84 10.89Q61.84 11.09 61.89 11.26L61.89 11.26L61.89 11.26Q61.94 11.44 62.08 11.76L62.08 11.76L62.08 11.76Q62.12 11.84 62.22 12.21L62.22 12.21L62.22 12.21Q62.33 12.56 62.47 12.94L62.47 12.94L62.47 12.94Q62.61 13.33 62.73 13.50L62.73 13.50L62.73 13.50Q62.76 13.54 62.77 13.49L62.77 13.49L62.77 13.49Q62.78 13.44 62.78 13.34L62.78 13.34L62.78 13.34Q62.78 13.13 62.72 12.40L62.72 12.40L62.72 12.40Q62.66 11.68 62.66 11.47L62.66 11.47L62.66 11.47Q62.66 10.84 62.72 9.27L62.72 9.27L62.72 9.27Q62.78 7.59 62.78 6.65L62.78 6.65L62.78 6.37L62.78 6.37Q62.78 5.94 62.64 5.24L62.64 5.24L62.64 5.24Q62.50 4.54 62.50 4.12L62.50 4.12L62.50 4.12Q62.23 3.85 62.03 3.70L62.03 3.70L62.03 3.70Q61.82 3.56 61.64 3.56L61.64 3.56L61.64 3.56Q61.56 3.47 61.45 3.40L61.45 3.40L61.45 3.40Q61.35 3.32 61.30 3.25L61.30 3.25L61.30 3.25Q61.25 3.18 61.25 3.08L61.25 3.08L61.25 3.08Q61.25 2.93 61.36 2.70L61.36 2.70L61.36 2.70Q61.49 2.70 61.57 2.74L61.57 2.74L61.57 2.74Q61.64 2.79 61.87 2.79L61.87 2.79L61.87 2.79Q62.13 2.79 62.29 2.75L62.29 2.75L62.29 2.75Q62.45 2.72 62.50 2.70L62.50 2.70L62.50 2.70Q62.66 2.74 62.86 2.74L62.86 2.74L62.86 2.74Q63.00 2.74 63.31 2.72L63.31 2.72L63.31 2.72Q63.74 2.69 63.92 2.70L63.92 2.70L63.92 2.70Q64.33 2.73 64.46 3.00L64.46 3.00Z"></path></g><!----><!----></svg>