<svg height="512" viewBox="0 0 512 512" width="512" xmlns="http://www.w3.org/2000/svg"><g id="flat"><path d="m24 120h416a0 0 0 0 1 0 0v280a0 0 0 0 1 0 0h-402a14 14 0 0 1 -14-14v-266a0 0 0 0 1 0 0z" fill="#985713"/><path d="m24 120h416a0 0 0 0 1 0 0v25.6a54.4 54.4 0 0 1 -54.4 54.4h-307.2a54.4 54.4 0 0 1 -54.4-54.4v-25.6a0 0 0 0 1 0 0z" fill="#a45e14"/><path d="m168 48h128v40h-128z" fill="#985713"/><path d="m176 120h-32v-56a16 16 0 0 1 16-16h16z" fill="#70400e"/><path d="m288 48h16a16 16 0 0 1 16 16v56a0 0 0 0 1 0 0h-32a0 0 0 0 1 0 0v-72a0 0 0 0 1 0 0z" fill="#70400e"/><path d="m104 296h32v56h-32z" fill="#fd9226"/><path d="m104 336h32v16h-32z" fill="#e08122"/><path d="m232 272h32v80h-32z" fill="#6cbae5"/><path d="m232 336h32v16h-32z" fill="#4799cf"/><path d="m168 232h32v120h-32z" fill="#aac16b"/><path d="m168 336h32v16h-32z" fill="#89b140"/><g fill="#70400e"><path d="m288 224h16v16h-16z"/><path d="m320 224h40v16h-40z"/><path d="m288 256h40v16h-40z"/></g><path d="m80 344v-92.686l2.343 2.343a8 8 0 0 0 11.314-11.314l-16-16a8 8 0 0 0 -11.314 0l-16 16a8 8 0 0 0 11.314 11.314l2.343-2.343v100.686a8 8 0 0 0 8 8h216v-16z" fill="#f55648"/><path d="m488 384a104.014 104.014 0 0 1 -203.13 31.53c-.03-.09-.06-.19-.09-.28-.52-1.66-1.01-3.33-1.45-5.03a103.332 103.332 0 0 1 -2.87-16.43v-.01q-.46-4.83-.46-9.78a104 104 0 0 1 208 0z" fill="#fbd699"/><path d="m144 112h32v8h-32z" fill="#54300a"/><path d="m288 112h32v8h-32z" fill="#54300a"/><path d="m320 376v16a36.761 36.761 0 0 0 -30.66 16.41l-4.56 6.84c-.52-1.66-1.01-3.33-1.45-5.03a103.332 103.332 0 0 1 -2.87-16.43v-.01a52.721 52.721 0 0 1 39.54-17.78z" fill="#b94137"/><path d="m448 344.99v44h-41.78a45 45 0 1 1 -37.92-44.44l44.48.25 16 .08z" fill="#fbb540"/><path d="m428.78 344.88v19.66h-16v-19.74z" fill="#ea9d2d"/><circle cx="361" cy="388.992" fill="#ea9d2d" r="16"/></g></svg>