<svg id="Capa_1" enable-background="new 0 0 512 512" height="512" viewBox="0 0 512 512" width="512" xmlns="http://www.w3.org/2000/svg"><path d="m489.224 206.823c-2.441-1.345-4.384-3.439-5.349-6.054l-.737-1.995c-2.208-5.977-2.425-12.54-.433-18.593 1.19-3.616 1.702-7.538 1.386-11.619-1.124-14.508-12.92-26.197-27.437-27.198-17.314-1.194-31.731 12.498-31.731 29.557 0 12.991 8.363 24.024 19.998 28.019 6.381 2.192 11.847 6.451 15.376 12.201 1.516 2.47 2.113 5.427 1.517 8.264-.261 1.244-.399 2.534-.399 3.856 0 2.555.512 4.989 1.438 7.207 1.428 3.423 1.182 7.318-.417 10.665l-.676.843c-1.71 2.131-3.967 3.768-6.541 4.684-.05.018-.092.032-.126.043-5.924 1.939-10.204 7.511-10.204 14.083 0 2.932.854 5.662 2.325 7.96 2.348 3.668 3.584 7.938 3.905 12.281l6.754 91.178h5.75l5.649-92.563c.254-4.161 1.493-8.182 3.476-11.849 1.128-2.085 1.77-4.47 1.77-7.007 0-.891-.08-1.763-.232-2.61-.642-3.569-.019-7.248 2.014-10.251l.692-1.023c1.873-2.766 4.737-4.648 7.968-5.497 8.046-2.114 13.98-9.436 13.98-18.145.001-7.081-3.924-13.244-9.716-16.437z" fill="#d8eafb"/><path d="m489.224 206.823c-2.441-1.345-4.384-3.439-5.349-6.054l-.737-1.995c-2.208-5.977-2.425-12.54-.433-18.593 1.19-3.616 1.702-7.538 1.386-11.619-1.124-14.508-12.92-26.197-27.437-27.198-2.29-.158-4.527-.048-6.688.288 13.341 2.096 23.858 13.252 24.916 26.91.316 4.081-.196 8.004-1.386 11.619-1.992 6.053-1.775 12.616.433 18.593l.737 1.995c.966 2.615 2.909 4.708 5.349 6.054 5.792 3.193 9.717 9.356 9.717 16.438 0 8.709-5.934 16.031-13.98 18.145-3.231.849-6.095 2.73-7.968 5.497l-.692 1.023c-2.033 3.003-2.655 6.682-2.014 10.251.152.847.232 1.719.232 2.61 0 2.538-.642 4.922-1.77 7.007-1.983 3.666-3.222 7.688-3.476 11.849l-4.086 66.956 1.897 25.606h5.75l5.649-92.563c.254-4.161 1.493-8.182 3.476-11.849 1.128-2.085 1.77-4.47 1.77-7.007 0-.891-.08-1.763-.232-2.61-.642-3.569-.019-7.248 2.014-10.251l.692-1.023c1.873-2.766 4.737-4.648 7.968-5.497 8.046-2.114 13.98-9.436 13.98-18.145-.001-7.081-3.926-13.244-9.718-16.437z" fill="#b3d8fb"/><path d="m113.217 500.845c0 6.429-7.168 10.201-12.506 6.617-8.428-5.66-21.035-11.377-37.573-11.377-19.971 0-34.21 8.338-42.28 14.842-3.138 2.53-7.799.303-7.799-3.728v-113.735c0-2.306.896-4.518 2.51-6.164 5.888-6.007 22.048-19.623 47.569-19.623 32.744 0 50.079 22.414 50.079 22.414z" fill="#eedfda"/><path d="m213.375 507.2c0 4.031-4.661 6.257-7.799 3.728-8.07-6.505-22.309-14.842-42.28-14.842-16.538 0-29.145 5.718-37.573 11.377-5.337 3.584-12.506-.188-12.506-6.617v-110.755s17.335-22.414 50.079-22.414c25.521 0 41.681 13.616 47.569 19.623 1.614 1.647 2.51 3.859 2.51 6.164z" fill="#eedfda"/><path d="m194.42 375.234v93.855c0 5.566-5.398 9.547-10.704 7.868-5.946-1.881-12.759-3.109-20.42-3.109-32.744 0-50.079 22.414-50.079 22.414v4.583c0 6.429 7.168 10.201 12.506 6.617 8.428-5.66 21.035-11.377 37.573-11.377 19.971 0 34.21 8.338 42.28 14.842 3.138 2.53 7.799.303 7.799-3.728v-113.73c0-2.327-.923-4.551-2.555-6.21-2.959-3.008-8.465-7.888-16.4-12.025z" fill="#ded0cb"/><path d="m93.135 374.655v94.086c0 5.52-5.31 9.479-10.599 7.901-5.702-1.701-12.174-2.793-19.398-2.793-32.744 0-50.079 22.414-50.079 22.414v10.937c0 4.031 4.661 6.257 7.799 3.728 8.07-6.505 22.309-14.842 42.28-14.842 16.538 0 29.145 5.718 37.573 11.377 5.337 3.584 12.506-.187 12.506-6.617v-110.755s-6.857-8.857-20.082-15.436z" fill="#ded0cb"/><path d="m394.494 228.484c-6.869-2.6-14.606-1.107-21.82 3.446-3.701-67.913-59.937-121.844-128.774-121.844s-125.074 53.931-128.774 121.844c-7.214-4.553-14.951-6.046-21.82-3.446-15.101 5.716-24.433 30.564-15.728 53.563 8.025 21.201 36.149 32.255 52.328 29.379 21.655 56.61 64.574 110.205 113.993 110.205s92.338-53.596 113.993-110.205c16.179 2.876 44.304-8.178 52.328-29.379 8.706-23-.625-47.848-15.726-53.563z" fill="#ffcbbe"/><path d="m394.494 228.484c-6.87-2.6-14.608-1.107-21.823 3.448-3.354-61.554-49.865-111.617-109.802-120.453 37.158 22.636 61.971 63.531 61.971 110.223 0 71.23-57.743 182.573-128.973 182.573-.201 0-.4-.013-.601-.015 15.009 10.861 31.425 17.372 48.633 17.372 49.418 0 92.338-53.596 113.993-110.205 16.18 2.876 44.304-8.178 52.328-29.379 8.706-23.001-.625-47.849-15.726-53.564z" fill="#fdad9d"/><circle cx="195.824" cy="254.055" fill="#09a66d" r="15.492"/><circle cx="294.953" cy="254.055" fill="#09a66d" r="15.492"/><path d="m253.054 318.22h-26.725c-4.226 0-7.651-3.425-7.651-7.651s3.426-7.651 7.651-7.651h26.725c4.226 0 7.651 3.425 7.651 7.651s-3.425 7.651-7.651 7.651z" fill="#f26a35"/><path d="m119.77 54.284h3.949c2.761 0 5 2.239 5 5v128.891c0 2.761-2.239 5-5 5h-3.949c-20.529 0-37.171-16.642-37.171-37.171v-64.55c0-20.529 16.642-37.17 37.171-37.17z" fill="#ad6b6b"/><path d="m361.055 54.551h-3.949c-2.761 0-5 2.239-5 5v128.891c0 2.761 2.239 5 5 5h3.949c20.529 0 37.171-16.642 37.171-37.171v-64.55c0-20.528-16.642-37.17-37.171-37.17z" fill="#ad6b6b"/><g fill="#845151"><path d="m371.472 56.041c4.431 6.12 7.05 13.637 7.05 21.77v64.55c0 16.788-11.132 30.971-26.415 35.584v10.497c0 2.761 2.239 5 5 5h3.949c20.529 0 37.171-16.642 37.171-37.171v-64.55c-.001-16.911-11.299-31.175-26.755-35.68z"/><path d="m123.618 54.283h-3.099c-3.954 0-7.766.607-11.35 1.73v115.185c0 4.529-3.671 8.2-8.2 8.2-3.807 0-7.481-.568-10.948-1.612 6.907 9.334 17.994 15.389 30.498 15.389h3.099c2.817 0 5.101-2.284 5.101-5.101v-128.69c0-2.817-2.284-5.101-5.101-5.101z"/><path d="m299.794 245.669h-122.685c-19.935 0-36.096-16.161-36.096-36.096v-16.398h194.877v16.398c0 19.935-16.161 36.096-36.096 36.096z"/></g><path d="m292.705 193.175v15.671c0 20.337-16.486 36.823-36.823 36.823h43.185c20.337 0 36.823-16.486 36.823-36.823v-15.671z" fill="#5a3535"/><path d="m256.955 42.254h-33.084c-62.094 0-112.431 50.337-112.431 112.431v29.968c0 4.707 3.816 8.523 8.523 8.523h240.901c4.707 0 8.523-3.816 8.523-8.523v-29.968c-.001-62.095-50.338-112.431-112.432-112.431z" fill="#845151"/><path d="m303.959 52.528c15.287 19.202 24.427 43.516 24.427 69.968 0 21.258-17.233 38.491-38.491 38.491h-178.455v23.666c0 4.707 3.816 8.522 8.522 8.522h240.901c4.707 0 8.523-3.816 8.523-8.523v-29.968c0-45.312-26.809-84.357-65.427-102.156z" fill="#5a3535"/><path d="m267.439 0c-11.321 0-21.026 6.227-27.027 11.261-6-5.034-15.705-11.261-27.026-11.261-22.123 0-29.973 12.079-29.973 22.423s7.85 22.423 29.973 22.423c4.722 0 9.162-1.086 13.171-2.715l-8.68 26.393c-1.32 4.014.864 8.338 4.878 9.659 4.014 1.319 8.338-.864 9.659-4.879l8.548-25.99 8.548 25.99c1.059 3.221 4.052 5.263 7.267 5.263.793 0 1.598-.124 2.392-.385 4.014-1.321 6.198-5.645 4.878-9.659l-8.522-25.911c3.675 1.355 7.681 2.232 11.917 2.232 22.123 0 29.973-12.079 29.973-22.423s-7.852-22.421-29.976-22.421zm-68.724 22.423c0-5.25 7.579-7.121 14.671-7.121 6.116 0 12.225 3.642 16.543 7.121-4.319 3.479-10.428 7.121-16.543 7.121-7.092 0-14.671-1.871-14.671-7.121zm68.724 7.121c-6.115 0-12.223-3.641-16.541-7.119 4.082-3.327 10.142-7.123 16.541-7.123 7.092 0 14.671 1.871 14.671 7.121s-7.578 7.121-14.671 7.121z" fill="#ad6b6b"/><path d="m376.666 389.465c1.835 2.794 3.624 5.42 5.373 7.895 1.307 1.849 4.209 1.034 4.38-1.223l2.247-29.624c.354-3.955 3.668-6.986 7.639-6.986h73.68c3.971 0 7.285 3.031 7.639 6.986l5.325 70.223c2.62 29.26-20.427 54.464-49.805 54.464-1.289 0-2.561-.066-3.824-.161l-.052.161c-40.592 0-58.548-23.523-75.427-57.366-40.722-81.643-50.516-111.668-97.872-115.791-3.902-.34-6.906-3.599-6.906-7.515 0-4.326 3.636-7.772 7.956-7.545 55.496 2.918 78.929 24.502 119.647 86.482z" fill="#ad6b6b"/><path d="m482.949 436.735-5.325-70.223c-.354-3.955-3.668-6.986-7.639-6.986h-22.573l4.514 59.526c2.62 29.261-20.428 54.464-49.805 54.464-1.289 0-2.561-.066-3.825-.161l-.052.161c-7.261 0-13.787-.765-19.723-2.195 12.33 12.473 27.976 19.878 50.746 19.878l.052-.161c1.263.095 2.535.161 3.824.161 29.379 0 52.427-25.204 49.806-54.464z" fill="#845151"/></svg>