<svg id="Capa_1" enable-background="new 0 0 512 512" height="512" viewBox="0 0 512 512" width="512" xmlns="http://www.w3.org/2000/svg"><g><g fill="#ff668e"><path d="m454.19 121.253-103.07 103.087-94.12-94.126-8.96-8.961c-27.7-27.702-27.7-72.775 0-100.477 2.82-2.82 5.82-5.35 8.96-7.591 27.73-19.821 66.63-17.291 91.51 7.591l2.61 2.6 2.6-2.6c27.7-27.702 72.77-27.702 100.47 0s27.7 72.775 0 100.477z"/><path d="m193.09 153.355-70.97 70.985-70.98-70.985c-18.82-18.821-18.82-49.443 0-68.265 9.11-9.11 21.23-14.13 34.12-14.13 12.9 0 25.02 5.02 34.13 14.131l2.73 2.73 2.72-2.73c18.82-18.821 49.44-18.811 68.25 0 18.82 18.821 18.82 49.443 0 68.264z"/></g><path d="m193.09 153.355-70.97 70.985v-136.519l2.72-2.73c18.82-18.821 49.44-18.811 68.25 0 18.82 18.821 18.82 49.443 0 68.264z" fill="#e04496"/><path d="m454.19 121.253-103.07 103.087v-200.963l2.6-2.6c27.7-27.702 72.77-27.702 100.47 0 27.7 27.701 27.7 72.774 0 100.476z" fill="#e04496"/><path d="m501.458 306.106-139.839 139.97h-237.94l-65.869 65.924h-57.81v-123.168l112.81-112.908 142.619 47.563 29.02 9.681h88.19l77.92-77.995c13.85-13.851 36.21-14.091 50.35-.54 14.569 13.97 14.819 37.192.549 51.473z" fill="#ffe8c8"/><path d="m501.458 306.106-139.839 139.97h-106.19v-122.589l29.02 9.681h88.19l77.92-77.995c13.85-13.851 36.21-14.091 50.35-.54 14.569 13.97 14.819 37.192.549 51.473z" fill="#ffc796"/><path d="m297.499 311.626c0 19.721-15.97 35.703-35.68 35.703h-220.359l71.35-71.405h149.009c9.86 0 18.78 4 25.23 10.461 6.46 6.46 10.45 15.381 10.45 25.241z" fill="#ffc796"/><path d="m297.499 311.626c0 19.721-15.97 35.703-35.68 35.703h-6.39v-71.405h6.39c9.86 0 18.78 4 25.23 10.461 6.46 6.46 10.45 15.381 10.45 25.241z" fill="#f99573"/></g></svg>